<svg width="16" height="12" viewBox="0 0 16 12" fill="none" xmlns="http://www.w3.org/2000/svg">
<path d="M13.5535 1.00498C12.5023 0.528727 11.3925 0.190857 10.2526 0C10.0966 0.27595 9.95547 0.559867 9.82976 0.85056C8.6155 0.669492 7.38067 0.669492 6.16641 0.85056C6.04063 0.559897 5.89949 0.275984 5.74357 0C4.60289 0.192468 3.4924 0.531141 2.44013 1.00747C0.351096 4.066 -0.215207 7.04857 0.0679444 9.98879C1.29133 10.8833 2.66066 11.5635 4.11639 12C4.44417 11.5637 4.73422 11.1009 4.98346 10.6164C4.51007 10.4415 4.05317 10.2256 3.61804 9.97136C3.73256 9.88916 3.84456 9.80448 3.95279 9.72229C5.21891 10.3115 6.60083 10.617 7.99997 10.617C9.39912 10.617 10.781 10.3115 12.0472 9.72229C12.1566 9.81071 12.2686 9.89539 12.3819 9.97136C11.9459 10.226 11.4882 10.4423 11.014 10.6177C11.2629 11.1019 11.553 11.5644 11.881 12C13.338 11.5653 14.7084 10.8853 15.932 9.99004C16.2642 6.58032 15.3644 3.62516 13.5535 1.00498ZM5.34212 8.18057C4.55307 8.18057 3.90119 7.47198 3.90119 6.60025C3.90119 5.72852 4.53042 5.0137 5.3396 5.0137C6.14879 5.0137 6.79563 5.72852 6.78179 6.60025C6.76795 7.47198 6.14627 8.18057 5.34212 8.18057ZM10.6578 8.18057C9.86752 8.18057 9.21815 7.47198 9.21815 6.60025C9.21815 5.72852 9.84738 5.0137 10.6578 5.0137C11.4683 5.0137 12.1101 5.72852 12.0962 6.60025C12.0824 7.47198 11.462 8.18057 10.6578 8.18057Z" fill="#B3B3B3"/>
</svg>
