<svg width="12" height="12" viewBox="0 0 12 12" fill="none" xmlns="http://www.w3.org/2000/svg">
<path fill-rule="evenodd" clip-rule="evenodd" d="M6 0C6.36819 0 6.66667 0.282768 6.66667 0.631579V6.68576L8.86193 4.60604C9.12228 4.35939 9.54439 4.35939 9.80474 4.60604C10.0651 4.85268 10.0651 5.25258 9.80474 5.49923L6.4714 8.65712C6.21106 8.90377 5.78895 8.90377 5.5286 8.65712L2.19526 5.49923C1.93491 5.25258 1.93491 4.85268 2.19526 4.60604C2.45561 4.35939 2.87772 4.35939 3.13807 4.60604L5.33333 6.68576V0.631579C5.33333 0.282768 5.63181 0 6 0ZM0.666667 8.21053C1.03486 8.21053 1.33333 8.49329 1.33333 8.8421V10.1053C1.33333 10.2728 1.40357 10.4334 1.5286 10.5519C1.65362 10.6703 1.82319 10.7368 2 10.7368H10C10.1768 10.7368 10.3464 10.6703 10.4714 10.5519C10.5964 10.4334 10.6667 10.2728 10.6667 10.1053V8.8421C10.6667 8.49329 10.9651 8.21053 11.3333 8.21053C11.7015 8.21053 12 8.49329 12 8.8421V10.1053C12 10.6078 11.7893 11.0897 11.4142 11.445C11.0391 11.8004 10.5304 12 10 12H2C1.46957 12 0.960859 11.8004 0.585786 11.445C0.210714 11.0897 0 10.6078 0 10.1053V8.8421C0 8.49329 0.298477 8.21053 0.666667 8.21053Z" fill="#B3B3B3"/>
</svg>
