<svg width="12" height="12" viewBox="0 0 12 12" fill="none" xmlns="http://www.w3.org/2000/svg">
<path fill-rule="evenodd" clip-rule="evenodd" d="M6.00496 0C2.68437 0 0 2.74999 0 6.1521C0 8.87159 1.71997 11.1736 4.10603 11.9883C4.40435 12.0496 4.51362 11.856 4.51362 11.6931C4.51362 11.5505 4.50378 11.0616 4.50378 10.5522C2.83335 10.919 2.4855 9.81884 2.4855 9.81884C2.21705 9.10584 1.81929 8.92259 1.81929 8.92259C1.27255 8.54571 1.85911 8.54571 1.85911 8.54571C2.46558 8.58646 2.78381 9.17721 2.78381 9.17721C3.32059 10.1142 4.18555 9.84946 4.53353 9.68646C4.58319 9.28921 4.74237 9.01421 4.91138 8.86146C3.57908 8.71884 2.17734 8.18922 2.17734 5.8261C2.17734 5.15385 2.4158 4.60386 2.79365 4.17611C2.73403 4.02336 2.5252 3.39174 2.85338 2.54636C2.85338 2.54636 3.36042 2.38337 4.50366 3.17786C4.99313 3.0432 5.4979 2.97469 6.00496 2.97411C6.512 2.97411 7.02886 3.04549 7.50614 3.17786C8.64951 2.38337 9.15655 2.54636 9.15655 2.54636C9.48473 3.39174 9.27577 4.02336 9.21616 4.17611C9.60396 4.60386 9.83259 5.15385 9.83259 5.8261C9.83259 8.18922 8.43085 8.70859 7.0886 8.86146C7.30739 9.05496 7.49619 9.42159 7.49619 10.0022C7.49619 10.8272 7.48635 11.4893 7.48635 11.693C7.48635 11.856 7.59575 12.0496 7.89395 11.9885C10.28 11.1735 12 8.87159 12 6.1521C12.0098 2.74999 9.3156 0 6.00496 0Z" fill="#B3B3B3"/>
</svg>
